<svg width="32" height="32" viewBox="0 0 32 32" fill="none" xmlns="http://www.w3.org/2000/svg">
  <!-- Background -->
  <rect width="32" height="32" fill="none"/>
  
  <!-- Taiji Circle with brush stroke effect -->
  <path d="M16 2C8.268 2 2 8.268 2 16s6.268 14 14 14 14-6.268 14-14S23.732 2 16 2z" 
        fill="none" 
        stroke="currentColor" 
        stroke-width="1.5"
        stroke-linecap="round" />
  
  <!-- Red (Yang) half with brush effect -->
  <path d="M16 2C19.9 2 23.3 3.6 25.6 6.2C27.9 8.8 29 12.3 28.8 15.8C28.6 19.3 27 22.6 24.4 24.9C21.8 27.2 18.3 28.3 14.8 28.1C11.3 27.9 8 26.3 5.7 23.7C3.4 21.1 2.3 17.6 2.5 14.1C2.7 10.6 4.3 7.3 6.9 5C9.5 2.7 13 1.6 16.5 1.8L16 2z"
        fill="currentColor"
        class="dark:text-red-600 text-red-600" />
  
  <!-- Black (Yin) half with brush effect -->
  <path d="M16 2C12.1 2 8.7 3.6 6.4 6.2C4.1 8.8 3 12.3 3.2 15.8C3.4 19.3 5 22.6 7.6 24.9C10.2 27.2 13.7 28.3 17.2 28.1C20.7 27.9 24 26.3 26.3 23.7C28.6 21.1 29.7 17.6 29.5 14.1C29.3 10.6 27.7 7.3 25.1 5C22.5 2.7 19 1.6 15.5 1.8L16 2z"
        fill="currentColor" />
  
  <!-- Small circles -->
  <circle cx="21" cy="11" r="2" fill="currentColor" class="dark:text-red-600 text-red-600" />
  <circle cx="11" cy="21" r="2" fill="currentColor" />
  
  <!-- Plum Blossoms -->
  <g class="dark:text-red-600 text-red-600" fill="currentColor">
    <!-- Top left blossom -->
    <path d="M6 4.5C5.5 4.2 5.2 4.5 5 5C4.8 5.5 5 6 5.5 6.2C6 6.4 6.5 6.2 6.7 5.7C6.9 5.2 6.5 4.8 6 4.5Z" />
    <!-- Top right blossom -->
    <path d="M26 4.5C26.5 4.2 26.8 4.5 27 5C27.2 5.5 27 6 26.5 6.2C26 6.4 25.5 6.2 25.3 5.7C25.1 5.2 25.5 4.8 26 4.5Z" />
    <!-- Bottom blossom -->
    <path d="M16 28C15.5 27.7 15.2 28 15 28.5C14.8 29 15 29.5 15.5 29.7C16 29.9 16.5 29.7 16.7 29.2C16.9 28.7 16.5 28.3 16 28Z" />
  </g>
  
  <!-- Branch strokes -->
  <path d="M6 4L8 6M26 4L24 6M16 28L16 26" 
        stroke="currentColor" 
        stroke-width="0.5" 
        stroke-linecap="round"
        class="dark:text-red-600 text-red-600" />
</svg>